<?xml version="1.0" standalone="no"?>
<!DOCTYPE svg PUBLIC "-//W3C//DTD SVG 20010904//EN"
 "http://www.w3.org/TR/2001/REC-SVG-20010904/DTD/svg10.dtd">
<svg version="1.0" xmlns="http://www.w3.org/2000/svg"
 width="200.000000pt" height="200.000000pt" viewBox="0 0 200.000000 200.000000"
 preserveAspectRatio="xMidYMid meet">
<metadata>
Created by potrace 1.14, written by Peter Selinger 2001-2017
</metadata>
<g transform="translate(0.000000,200.000000) scale(0.100000,-0.100000)"
fill="#000000" stroke="none">
<path d="M0 1000 l0 -1000 1000 0 1000 0 0 1000 0 1000 -1000 0 -1000 0 0
-1000z m1115 735 c172 -45 305 -179 350 -352 22 -85 22 -753 0 -753 -13 0 -15
44 -15 340 0 367 -4 408 -52 507 -34 69 -119 158 -183 191 -233 118 -507 27
-616 -203 -16 -33 -33 -84 -39 -114 -5 -30 -10 -202 -10 -387 0 -290 -2 -334
-15 -334 -23 0 -22 650 1 750 57 254 328 420 579 355z m50 -120 c76 -37 143
-104 181 -180 l29 -60 3 -372 c3 -331 1 -373 -13 -373 -13 0 -15 18 -15 120
l0 120 -165 0 -165 0 0 -120 c0 -113 -1 -120 -20 -120 -19 0 -20 7 -20 120 l0
120 -165 0 -165 0 0 -120 c0 -100 -2 -120 -15 -120 -13 0 -15 46 -15 355 0
326 2 360 19 410 26 75 80 145 144 189 77 53 126 66 233 63 76 -2 100 -7 149
-32z"/>
<path d="M888 1602 c-103 -38 -179 -114 -218 -219 -19 -50 -20 -74 -18 -259
l3 -204 338 225 c185 124 337 230 337 235 0 56 -97 167 -179 207 -73 34 -192
42 -263 15z"/>
<path d="M1323 1328 c-4 -7 -8 -16 -8 -19 0 -13 -34 -38 -40 -30 -3 5 4 13 16
16 11 4 18 9 16 12 -8 8 -48 -17 -42 -27 3 -4 -7 -12 -22 -18 l-28 -9 50 -26
c28 -14 46 -26 42 -27 -4 0 -30 11 -57 25 -28 14 -50 23 -50 21 0 -6 132 -76
142 -76 4 0 8 38 8 85 0 80 -8 102 -27 73z"/>
<path d="M1083 1167 l-63 -42 0 -113 0 -113 73 3 72 3 3 153 c2 118 0 152 -10
152 -7 0 -41 -19 -75 -43z"/>
<path d="M832 1000 l-143 -95 142 -3 c78 -1 144 -1 146 1 2 3 2 47 1 98 l-3
94 -143 -95z"/>
<path d="M1220 1010 c-9 -6 -10 -10 -3 -10 6 0 15 5 18 10 8 12 4 12 -15 0z"/>
</g>
</svg>
