<svg width="969" height="196" viewBox="0 0 969 196" fill="none" xmlns="http://www.w3.org/2000/svg">
<path d="M155.32 154H64.32L46.96 196H0.48L87.84 -1.33514e-05H132.64L220.28 196H172.68L155.32 154ZM141.04 119.56L109.96 44.52L78.88 119.56H141.04ZM246.215 -1.33514e-05H291.575V159.04H389.855V196H246.215V-1.33514e-05ZM595.568 -1.33514e-05L510.728 196H465.928L381.368 -1.33514e-05H430.368L490.008 140L550.488 -1.33514e-05H595.568ZM617.532 -1.33514e-05H662.892V196H617.532V-1.33514e-05ZM799.847 -1.33514e-05C817.207 -1.33514e-05 832.234 2.89332 844.927 8.67999C857.807 14.4667 867.701 22.68 874.607 33.32C881.514 43.96 884.967 56.56 884.967 71.12C884.967 85.4933 881.514 98.0933 874.607 108.92C867.701 119.56 857.807 127.773 844.927 133.56C832.234 139.16 817.207 141.96 799.847 141.96H760.367V196H715.007V-1.33514e-05H799.847ZM797.327 105C810.954 105 821.314 102.107 828.407 96.32C835.501 90.3467 839.047 81.9467 839.047 71.12C839.047 60.1067 835.501 51.7067 828.407 45.92C821.314 39.9467 810.954 36.96 797.327 36.96H760.367V105H797.327ZM922.951 -1.33514e-05H968.311V196H922.951V-1.33514e-05Z" fill="white" fill-opacity="0.02"/>
</svg>
