<svg width="23" height="24" viewBox="0 0 23 24" fill="none" xmlns="http://www.w3.org/2000/svg">
<path d="M20.3205 22.6902L20.3439 22.6527L22.6769 17.9172L15.8619 12.8059L12.7263 15.1575C11.5438 15.0871 10.4281 14.5856 9.59049 13.748C8.75285 12.9103 8.25139 11.7946 8.18104 10.6121L10.5326 7.47656L5.42145 0.661621L0.725491 2.97523L0.685842 2.9947L0.648436 3.01816C0.449498 3.14163 0.28547 3.31395 0.171968 3.51874C0.0584664 3.72353 -0.000731851 3.95395 6.8291e-06 4.18809L6.77569e-06 5.41003C6.67276e-06 7.76444 0.463742 10.0958 1.36474 12.271C2.26573 14.4462 3.58635 16.4226 5.25117 18.0874C6.91599 19.7523 8.89242 21.0729 11.0676 21.9738C13.2428 22.8748 15.5742 23.3386 17.9286 23.3386H19.1506C19.3847 23.3393 19.6151 23.2801 19.8199 23.1666C20.0247 23.0531 20.197 22.8891 20.3205 22.6902ZM17.9286 21.5886C9.00769 21.5886 1.75001 14.3309 1.75001 5.41003V4.42128L4.89251 2.87329L8.34521 7.47689L6.423 10.0399V10.3316C6.42495 12.0773 7.11929 13.7509 8.35367 14.9853C9.58806 16.2197 11.2617 16.914 13.0074 16.916H13.299L15.862 14.9937L20.4653 18.4461L18.9171 21.5886H17.9286Z" fill="white"/>
</svg>
