<svg width="18" height="18" viewBox="0 0 18 18" fill="none" xmlns="http://www.w3.org/2000/svg">
<path d="M3 0C1.338 0 0 1.33798 0 2.99996V15C0 16.662 1.338 18 3 18H15C16.662 18 18 16.662 18 15V2.99996C18 1.33798 16.662 0 15 0H3ZM14.1811 4.28761C14.5739 4.31936 14.6889 4.69293 14.5942 5.13131L12.8408 13.2525C12.7268 13.7806 12.3301 13.8458 11.852 13.4971L9.375 11.6895L8.01416 13.0034C7.80068 13.2092 7.404 13.269 7.28613 12.9082L6.26513 9.77775L3.85108 9.01606C2.9203 8.72205 3.58699 8.30502 3.90238 8.18257L13.6934 4.3813C13.8885 4.30561 14.0503 4.27842 14.1812 4.28891L14.1811 4.28761ZM12.4439 5.97803C12.3844 5.98937 12.3175 6.01405 12.2563 6.0526L6.73242 9.55361C6.69942 9.57345 6.66274 9.5706 6.69724 9.67662L7.59079 12.4188L7.77244 10.5554C7.77618 10.5194 7.77768 10.4959 7.81781 10.4602L12.4819 6.27371C12.7395 6.04241 12.622 5.94625 12.4438 5.97786L12.4439 5.97803Z" fill="white"/>
</svg>
